<svg width="392" height="119" viewBox="0 0 392 119" fill="none" xmlns="http://www.w3.org/2000/svg">
<path d="M12.552 65.24L48.52 88.664V100.696L0.52 69.592V61.144L48.52 30.04V41.944L12.552 65.24ZM121.53 0.599998L70.97 118.36H60.09L110.65 0.599998H121.53ZM379.648 65.24L343.68 41.944V30.04L391.68 61.144V69.592L343.68 100.696V88.664L379.648 65.24Z" fill="#7E7E7F"/>
<path d="M186.815 27.096L165.311 103.384H155.071L129.215 9.048H140.863L160.447 81.496L181.183 9.81599H193.087L213.311 81.752L233.023 9.048H245.055L218.687 103.384H208.447L186.815 27.096ZM328.388 98.264L325.7 99.416C318.02 102.829 309.316 104.536 299.588 104.536C265.796 104.536 248.9 88.9627 248.9 57.816C249.071 25.816 266.052 9.81599 299.844 9.81599C311.108 9.81599 319.983 11.7787 326.468 15.704L325.188 27.608C321.945 22.5733 313.497 20.056 299.844 20.056C274.244 20.056 261.444 32.216 261.444 56.536C261.444 81.2827 274.116 93.656 299.46 93.656C305.348 93.656 311.023 92.5467 316.484 90.328V63.448H292.676V54.104H328.388V98.264Z" fill="#569CD6"/>
</svg>
